<?xml version="1.0" encoding="utf-8"?>
<!-- Generator: Adobe Illustrator 27.9.0, SVG Export Plug-In . SVG Version: 6.00 Build 0)  -->
<svg version="1.1" id="Layer_2_00000051378100707579931410000015014904223498313122_"
	 xmlns="http://www.w3.org/2000/svg" xmlns:xlink="http://www.w3.org/1999/xlink" x="0px" y="0px" viewBox="0 0 63.5 53.8"
	 style="enable-background:new 0 0 63.5 53.8;" xml:space="preserve">
<style type="text/css">
	.st0{fill:#E65E2D;stroke:#000000;stroke-width:2;stroke-miterlimit:10;}
	.st1{stroke:#000000;stroke-miterlimit:10;}
</style>
<path class="st0" d="M62.6,47.8c0,2.8-2.2,5-4.9,5H5.9c-2.8,0-4.9-2.2-4.9-5V33.6c0-2.8,2.2-5,4.9-5h51.7c2.8,0,4.9,2.2,4.9,5V47.8z
	"/>
<path class="st1" d="M50.2,40.8c0,1.2-1.3,2.1-3,2.1H16.1c-1.6,0-3-0.9-3-2.1v-0.3c0-1.2,1.4-2.1,3-2.1h31.2c1.7,0,3,0.9,3,2.1v0.3
	C50.4,40.8,50.3,40.8,50.2,40.8z"/>
<rect x="24.6" width="14.3" height="23.7"/>
<polygon points="31.7,33.5 47,21.5 16.5,21.5 "/>
</svg>
