<?xml version="1.0" encoding="utf-8"?>
<!-- Generator: Adobe Illustrator 27.9.0, SVG Export Plug-In . SVG Version: 6.00 Build 0)  -->
<svg version="1.1" id="Layer_1" xmlns="http://www.w3.org/2000/svg" xmlns:xlink="http://www.w3.org/1999/xlink" x="0px" y="0px"
	 viewBox="0 0 62.5 88.5" style="enable-background:new 0 0 62.5 88.5;" xml:space="preserve">
<style type="text/css">
	.st0{fill:#E65E2D;}
</style>
<g>
	<path class="st0" d="M62.5,48.3c0,2.8-2.2,5-5,5H5c-2.8,0-5-2.2-5-5V34.1c0-2.8,2.2-5,5-5h52.5c2.8,0,5,2.2,5,5V48.3z"/>
</g>
<g>
	<path class="st0" d="M62.5,48.3c0,2.8-2.2,5-5,5H5c-2.8,0-5-2.2-5-5V34.1c0-2.8,2.2-5,5-5h52.5c2.8,0,5,2.2,5,5V48.3z"/>
</g>
<g>
	<path d="M49.8,41.4c0,1.7-1.3,3-3,3H15.7c-1.6,0-3-1.3-3-3V41c0-1.7,1.4-3,3-3h31.2c1.7,0,3,1.3,3,3V41.4z"/>
</g>
<rect x="24.1" width="14.3" height="23.7"/>
<polygon points="31.2,35.8 48.6,22.2 13.9,22.2 "/>
</svg>
