<?xml version="1.0" encoding="UTF-8"?>
<svg id="Layer_2" data-name="Layer 2" xmlns="http://www.w3.org/2000/svg" viewBox="0 0 63.5 53.8">
  <defs>
    <style>
      .cls-1, .cls-2 {
        stroke: #000;
        stroke-miterlimit: 10;
      }

      .cls-3, .cls-4 {
        stroke-width: 0px;
      }

      .cls-2, .cls-4 {
        fill: #e65e2d;
      }
    </style>
  </defs>
  <g id="Layer_1-2" data-name="Layer 1">
    <path class="cls-4" d="m63,48.3c0,2.8-2.2,5-5,5H5.5c-2.8,0-5-2.2-5-5v-14.2c0-2.8,2.2-5,5-5h52.5c2.8,0,5,2.2,5,5v14.2Z"/>
    <path class="cls-2" d="m63,48.3c0,2.8-2.2,5-5,5H5.5c-2.8,0-5-2.2-5-5v-14.2c0-2.8,2.2-5,5-5h52.5c2.8,0,5,2.2,5,5v14.2Z"/>
    <path class="cls-1" d="m50.3,41.4c0,1.7-1.3,3-3,3h-31.1c-1.6,0-3-1.3-3-3v-.4c0-1.7,1.4-3,3-3h31.2c1.7,0,3,1.3,3,3v.4h-.1Z"/>
    <rect class="cls-3" x="24.6" width="14.3" height="23.7"/>
    <polygon class="cls-3" points="31.7 35.8 49.1 22.2 14.4 22.2 31.7 35.8"/>
  </g>
</svg>