<?xml version="1.0" encoding="utf-8"?>
<svg viewBox="2.5942 12.4 94.9058 75.2" xmlns="http://www.w3.org/2000/svg">
  <g>
    <path d="M13.7,52.2c-0.6-0.2-1.2-0.3-1.8-0.3c-5.1-0.2-9.3,4-9.3,9.1c0,3.8,0,7.9,0,10.5C2.5,72.9,3.7,74,5,74h6.4   c0.1,0,0.2-0.1,0.2-0.2V60.2c0-2.7,0.8-5.3,2.1-7.7C13.9,52.4,13.8,52.2,13.7,52.2z"/>
    <path d="M30.8,47.9c-1.1-0.3-2.2-0.5-3.4-0.5c-7,0-12.8,5.7-12.8,12.8v17.5c0,1.4,1.1,2.5,2.5,2.5h11.2c0.1,0,0.2-0.1,0.2-0.2V57.7   c0-3.3,0.9-6.5,2.4-9.5C31,48.1,30.9,47.9,30.8,47.9z"/>
    <path d="M72.5,47.4c-1.1,0-2.2,0.2-3.4,0.5c-0.1,0-0.2,0.2-0.1,0.3c1.5,2.9,2.3,6.2,2.3,9.5V80c0,0.1,0.1,0.2,0.2,0.2h11.3   c1.4,0,2.5-1.1,2.5-2.5V60.2C85.4,53.2,79.7,47.4,72.5,47.4z"/>
    <path d="M88.5,51.9c-0.7,0-1.5,0.2-2.2,0.3c-0.1,0-0.2,0.2-0.1,0.3c1.3,2.3,2.1,5,2.1,7.7v13.6c0,0.1,0.1,0.2,0.2,0.2H95   c1.4,0,2.5-1.1,2.5-2.5V60.8C97.4,55.9,93.5,51.9,88.5,51.9z"/>
    <circle cx="72.5" cy="36.4" r="8"/>
    <ellipse transform="matrix(0.3827 -0.9239 0.9239 0.3827 14.4747 108.6629)" cx="88.6" cy="43.5" rx="5.4" ry="5.4"/>
    <path d="M44,40.1c-7.6,2.3-12.7,9.6-12.7,17.6v27.4c0,1.4,1.1,2.5,2.5,2.5h32c1.4,0,2.5-1.1,2.5-2.5V57.7   C68.5,45.6,56.9,36.2,44,40.1z"/>
    <circle cx="50" cy="24.2" r="11.8"/>
    <circle cx="27.4" cy="36.4" r="8"/>
    <ellipse transform="matrix(0.9871 -0.1602 0.1602 0.9871 -6.8214 2.3798)" cx="11.4" cy="43.5" rx="5.4" ry="5.4"/>
  </g>
</svg>