<?xml version="1.0" encoding="utf-8"?>
<!-- Generator: Adobe Illustrator 27.8.1, SVG Export Plug-In . SVG Version: 6.00 Build 0)  -->
<svg version="1.1" id="svg2" xmlns:svg="http://www.w3.org/2000/svg"
	 xmlns="http://www.w3.org/2000/svg" xmlns:xlink="http://www.w3.org/1999/xlink" x="0px" y="0px" viewBox="0 0 957 713"
	 style="enable-background:new 0 0 957 713;" xml:space="preserve">
<g id="g8">
	<circle id="path353" cx="55.3" cy="195.1" r="18.9"/>
	<circle id="path353-1" cx="100.3" cy="195.3" r="18.9"/>
	<circle id="path353-1-4" cx="151.2" cy="194.3" r="18.9"/>
	<circle id="path353-1-4-8" cx="55.4" cy="130.1" r="18.9"/>
	<circle id="path353-1-4-8-3" cx="100.3" cy="130.1" r="18.9"/>
	<circle id="path353-1-4-8-4" cx="151.3" cy="130.6" r="18.9"/>
	<circle id="path353-1-4-8-8" cx="195.9" cy="130.8" r="18.9"/>
	<circle id="path353-1-4-8-8-4" cx="55.4" cy="60.9" r="18.9"/>
	<circle id="path353-1-4-8-8-3" cx="100.1" cy="60.9" r="18.9"/>
	<circle id="path353-1-4-8-8-7" cx="151.2" cy="60.5" r="18.9"/>
	<circle id="path353-1-4-8-8-38" cx="196.4" cy="60.5" r="18.9"/>
	
		<ellipse id="path353-1-4-8-8-6" transform="matrix(0.2298 -0.9732 0.9732 0.2298 131.416 287.0142)" cx="247" cy="60.5" rx="18.9" ry="18.9"/>
	<circle id="path353-1-4-8-8-5" cx="292.2" cy="60.9" r="18.9"/>
	<circle id="path353-1-4-8-8-42" cx="343.3" cy="60.7" r="18.9"/>
	<circle id="path353-1-4-8-2" cx="247.5" cy="129.9" r="18.9"/>
	<circle id="path353-1-4-8-5" cx="292.2" cy="129.9" r="18.9"/>
	<circle id="path353-1-4-8-89" cx="195.9" cy="194.2" r="18.9"/>
	
		<ellipse id="path353-1-4-8-81" transform="matrix(0.1602 -0.9871 0.9871 0.1602 15.7518 406.9584)" cx="247" cy="194.2" rx="18.9" ry="18.9"/>
	<circle id="path353-1-4-8-1" cx="292.2" cy="194.2" r="18.9"/>
	<circle id="path353-1-4-8-37" cx="343.3" cy="194.2" r="18.9"/>
	<circle id="path353-1-4-8-0" cx="343.3" cy="129.9" r="18.9"/>
	<circle id="path353-1-4-8-0-4" cx="388" cy="60.8" r="18.9"/>
	<circle id="path353-1-4-8-0-4-1" cx="388" cy="130.1" r="18.9"/>
	<circle id="path353-1-4-8-0-4-6" cx="445.5" cy="130.1" r="18.9"/>
	<circle id="path353-1-4-8-0-4-6-0" cx="575.3" cy="134.5" r="18.9"/>
	<circle id="path353-1-4-8-0-4-6-9" cx="622.3" cy="145.3" r="18.9"/>
	<circle id="path353-1-4-8-0-4-64" cx="445.5" cy="60.5" r="18.9"/>
	<circle id="path353-1-4-8-0-4-68" cx="518.4" cy="61.3" r="18.9"/>
	<circle id="path353-1-4-8-0-4-4" cx="445.3" cy="194.2" r="18.9"/>
	<circle id="path353-1-4-8-0-4-5" cx="388" cy="194" r="18.9"/>
	<circle id="path353-1-4-8-0-4-8" cx="519.9" cy="192.9" r="18.9"/>
	<circle id="path353-1-4-8-0-4-8-1" cx="520.5" cy="131.6" r="18.9"/>
	<circle id="path353-1-4-8-0-4-6-4" cx="574.5" cy="200.4" r="18.9"/>
	<circle id="path353-1-4-8-0-4-6-3" cx="617.6" cy="217.9" r="18.9"/>
	<circle id="path353-1-4-8-0-4-6-3-5" cx="696.3" cy="201.8" r="18.9"/>
	<circle id="path353-1-4-8-0-4-6-3-9" cx="664" cy="166.4" r="18.9"/>
	<circle id="path353-1-4-8-0-4-6-5" cx="646" cy="256.9" r="18.9"/>
	<circle id="path353-1-4-8-0-4-6-3-56" cx="703.3" cy="97.6" r="18.9"/>
	<circle id="path353-1-4-8-0-4-6-3-7" cx="566.5" cy="64.2" r="18.9"/>
	<circle id="path353-1-4-8-0-4-6-3-97" cx="616.2" cy="69" r="18.9"/>
	<circle id="path353-1-4-8-0-4-6-3-3" cx="661.8" cy="81.3" r="18.9"/>
	<circle id="path353-1-4-8-0-4-6-3-37" cx="733.5" cy="129.9" r="18.9"/>
	<circle id="path353-1-4-8-0-4-6-3-37-0" cx="780.4" cy="76.4" r="18.9"/>
	<circle id="path353-1-4-8-0-4-6-3-37-1" cx="809.3" cy="117" r="18.9"/>
	<circle id="path353-1-4-8-0-4-6-3-37-8" cx="747.3" cy="42" r="18.9"/>
	<circle id="path353-1-4-8-0-4-6-3-37-2" cx="832" cy="44.8" r="18.9"/>
	<circle id="path353-1-4-8-0-4-6-3-37-25" cx="756.4" cy="169.3" r="18.9"/>
	<circle id="path353-1-4-8-0-4-6-3-37-27" cx="658.2" cy="309.9" r="18.9"/>
	<circle id="path353-1-4-8-0-4-6-3-37-17" cx="724.2" cy="307.5" r="18.9"/>
	<circle id="path353-1-4-8-0-4-6-3-37-24" cx="713.4" cy="250.4" r="18.9"/>
	<circle id="path353-1-4-8-0-4-6-3-37-6" cx="776.8" cy="209.6" r="18.9"/>
	<circle id="path353-1-4-8-0-4-6-3-37-14" cx="791.6" cy="259.1" r="18.9"/>
	<circle id="path353-1-4-8-0-4-6-3-37-4" cx="799.5" cy="308.2" r="18.9"/>
	<circle id="path353-1-4-8-0-4-6-3-37-62" cx="853.8" cy="273.6" r="18.9"/>
	<circle id="path353-1-4-8-0-4-6-3-37-11" cx="846.1" cy="220.3" r="18.9"/>
	<circle id="path353-1-4-8-0-4-6-3-37-11-8" cx="862.8" cy="84.6" r="18.9"/>
	<circle id="path353-1-4-8-0-4-6-3-37-11-8-1" cx="888.7" cy="128.1" r="18.9"/>
	<circle id="path353-1-4-8-0-4-6-3-37-9" cx="832.1" cy="165.7" r="18.9"/>
	<circle id="path353-1-4-8-0-4-6-3-37-9-1" cx="904.3" cy="177.9" r="18.9"/>
	<circle id="path353-1-4-8-0-4-6-3-37-10" cx="913.4" cy="228.1" r="18.9"/>
	<circle id="path353-1-4-8-0-4-6-3-37-272" cx="655.8" cy="395.6" r="18.9"/>
	<circle id="path353-1-4-8-0-4-6-3-37-272-5" cx="726.1" cy="403" r="18.9"/>
	<circle id="path353-1-4-8-0-4-6-3-37-272-3" cx="796.6" cy="398.5" r="18.9"/>
	<circle id="path353-1-4-8-0-4-6-3-37-272-1" cx="711.7" cy="453.6" r="18.9"/>
	<circle id="path353-1-4-8-0-4-6-3-37-272-7" cx="641.5" cy="447.2" r="18.9"/>
	<circle id="path353-1-4-8-0-4-6-3-37-272-34" cx="613.8" cy="489.4" r="18.9"/>
	<circle id="path353-1-4-8-0-4-6-3-37-272-6" cx="690.9" cy="501.8" r="18.9"/>
	<circle id="path353-1-4-8-0-4-6-3-37-272-2" cx="790.3" cy="443.3" r="18.9"/>
	<circle id="path353-1-4-8-0-4-6-3-37-272-37" cx="778.5" cy="488.5" r="18.9"/>
	<circle id="path353-1-4-8-0-4-6-3-37-272-15" cx="761.1" cy="530.4" r="18.9"/>
	<circle id="path353-1-4-8-0-4-6-3-37-272-19" cx="738.5" cy="571.9" r="18.9"/>
	<circle id="path353-1-4-8-0-4-6-3-37-272-25" cx="656.6" cy="541.2" r="18.9"/>
	<circle id="path353-1-4-8-0-4-6-3-37-272-70" cx="613.8" cy="568.6" r="18.9"/>
	<circle id="path353-1-4-8-0-4-6-3-37-272-73" cx="565.6" cy="579.5" r="18.9"/>
	<circle id="path353-1-4-8-0-4-6-3-37-272-14" cx="515.9" cy="578.6" r="18.9"/>
	<circle id="path353-1-4-8-0-4-6-3-37-272-4" cx="567.6" cy="510.7" r="18.9"/>
	<circle id="path353-1-4-8-0-4-6-3-37-272-4-7" cx="445.5" cy="514.2" r="18.9"/>
	
		<ellipse id="path353-1-4-8-0-4-6-3-37-272-4-67" transform="matrix(3.327793e-02 -0.9994 0.9994 3.327793e-02 -524.4494 614.1866)" cx="55.3" cy="578.2" rx="18.9" ry="18.9"/>
	<circle id="path353-1-4-8-0-4-6-3-37-272-4-51" cx="100.1" cy="578.2" r="18.9"/>
	<circle id="path353-1-4-8-0-4-6-3-37-272-4-678" cx="151.4" cy="578.3" r="18.9"/>
	<circle id="path353-1-4-8-0-4-6-3-37-272-4-0" cx="196.1" cy="578.3" r="18.9"/>
	<circle id="path353-1-4-8-0-4-6-3-37-272-4-61" cx="247.3" cy="578.3" r="18.9"/>
	<circle id="path353-1-4-8-0-4-6-3-37-272-4-9" cx="292.1" cy="578.6" r="18.9"/>
	<circle id="path353-1-4-8-0-4-6-3-37-272-4-3" cx="343.3" cy="578.3" r="18.9"/>
	<circle id="path353-1-4-8-0-4-6-3-37-272-4-94" cx="388.2" cy="578.3" r="18.9"/>
	<circle id="path353-1-4-8-0-4-6-3-37-272-4-57" cx="445.7" cy="578.3" r="18.9"/>
	
		<ellipse id="path353-1-4-8-0-4-6-3-37-272-4-29" transform="matrix(0.9985 -5.530037e-02 5.530037e-02 0.9985 -35.7736 4.0568)" cx="55.4" cy="648.4" rx="18.9" ry="18.9"/>
	<circle id="path353-1-4-8-0-4-6-3-37-272-4-81" cx="100.3" cy="648.4" r="18.9"/>
	<circle id="path353-1-4-8-0-4-6-3-37-272-4-584" cx="151.5" cy="648.7" r="18.9"/>
	<circle id="path353-1-4-8-0-4-6-3-37-272-4-743" cx="196.1" cy="648.4" r="18.9"/>
	<circle id="path353-1-4-8-0-4-6-3-37-272-4-741" cx="292.2" cy="648.7" r="18.9"/>
	<circle id="path353-1-4-8-0-4-6-3-37-272-4-53" cx="343.1" cy="648.6" r="18.9"/>
	<circle id="path353-1-4-8-0-4-6-3-37-272-4-69" cx="388.1" cy="648.6" r="18.9"/>
	<circle id="path353-1-4-8-0-4-6-3-37-272-4-56" cx="445.7" cy="648.6" r="18.9"/>
	<circle id="path353-1-4-8-0-4-6-3-37-272-4-945" cx="519.4" cy="647.7" r="18.9"/>
	<circle id="path353-1-4-8-0-4-6-3-37-272-4-65" cx="567.4" cy="647.3" r="18.9"/>
	<circle id="path353-1-4-8-0-4-6-3-37-272-4-548" cx="618.1" cy="644.1" r="18.9"/>
	<circle id="path353-1-4-8-0-4-6-3-37-272-4-34" cx="665.7" cy="634.3" r="18.9"/>
	<circle id="path353-1-4-8-0-4-6-3-37-272-4-72" cx="706.2" cy="609.1" r="18.9"/>
	<circle id="path353-1-4-8-0-4-6-3-37-272-4-54" cx="247.6" cy="648.4" r="18.9"/>
	<circle id="path353-1-4-8-0-4-6-3-37-272-4-5" cx="387.9" cy="514.4" r="18.9"/>
	<circle id="path353-1-4-8-0-4-6-3-37-272-4-58" cx="343" cy="514.1" r="18.9"/>
	<circle id="path353-1-4-8-0-4-6-3-37-272-4-1" cx="292" cy="514.3" r="18.9"/>
	<circle id="path353-1-4-8-0-4-6-3-37-272-4-70" cx="195.9" cy="514.1" r="18.9"/>
	<circle id="path353-1-4-8-0-4-6-3-37-272-4-21" cx="247.3" cy="514.4" r="18.9"/>
	<circle id="path353-1-4-8-0-4-6-3-37-272-4-74" cx="151.2" cy="514" r="18.9"/>
	
		<ellipse id="path353-1-4-8-0-4-6-3-37-272-4-6" transform="matrix(0.9994 -3.327793e-02 3.327793e-02 0.9994 -17.0808 2.1195)" cx="55.1" cy="514.2" rx="18.9" ry="18.9"/>
	<circle id="path353-1-4-8-0-4-6-3-37-272-4-8" cx="100.1" cy="514.2" r="18.9"/>
	<circle id="path353-1-4-8-0-4-6-3-37-272-4-2" cx="515.7" cy="514.3" r="18.9"/>
	<circle id="path353-1-4-8-0-4-6-3-37-272-4-4" cx="756.3" cy="662.1" r="18.9"/>
	<circle id="path353-1-4-8-0-4-6-3-37-272-4-614" cx="788.8" cy="621.3" r="18.9"/>
	<circle id="path353-1-4-8-0-4-6-3-37-272-4-28" cx="811.9" cy="574.7" r="18.9"/>
	<circle id="path353-1-4-8-0-4-6-3-37-272-4-811" cx="832.1" cy="527.8" r="18.9"/>
	<circle id="path353-1-4-8-0-4-6-3-37-272-4-18" cx="844" cy="474.8" r="18.9"/>
	<circle id="path353-1-4-8-0-4-6-3-37-272-4-31" cx="853.7" cy="421.7" r="18.9"/>
	<circle id="path353-1-4-8-0-4-6-3-37-272-4-573" cx="916.1" cy="398.6" r="18.9"/>
	<circle id="path353-1-4-8-0-4-6-3-37-272-4-06" cx="912.2" cy="453.3" r="18.9"/>
	<circle id="path353-1-4-8-0-4-6-3-37-272-4-06-8" cx="903.5" cy="508.5" r="18.9"/>
	<circle id="path353-1-4-8-0-4-6-3-37-272-4-06-5" cx="871.3" cy="613.6" r="18.9"/>
	<circle id="path353-1-4-8-0-4-6-3-37-272-4-06-5-3" cx="888.6" cy="560.9" r="18.9"/>
	<circle id="path353-1-4-8-0-4-6-3-37-272-4-06-5-0" cx="847.2" cy="662.9" r="18.9"/>
	<path id="path7665" d="M51.6,328.5c-15.8,0-28.6,12.7-28.6,28.3c0,0,0,0,0,0c0,15.6,12.8,28.3,28.6,28.3c0,0,0,0,0,0
		c15.8,0,28.6-12.7,28.6-28.3c0,0,0,0,0,0C80.2,341.2,67.4,328.5,51.6,328.5C51.6,328.5,51.6,328.5,51.6,328.5z M51.6,334.3
		c0.4,0,0.8,0,1.2,0c0.4,0,0.8,0.1,1.2,0.1c0.4,0,0.8,0.1,1.2,0.2c0.4,0.1,0.8,0.2,1.2,0.2c0.4,0.1,0.8,0.2,1.2,0.3
		c0.4,0.1,0.8,0.2,1.2,0.4c0.4,0.1,0.8,0.3,1.2,0.5c0.4,0.2,0.8,0.3,1.1,0.5c0.4,0.2,0.7,0.4,1.1,0.6c0.4,0.2,0.7,0.4,1.1,0.6
		c0.4,0.2,0.7,0.5,1,0.7c0.3,0.2,0.7,0.5,1,0.8c0.3,0.3,0.6,0.5,1,0.8c0.3,0.3,0.6,0.6,0.9,0.9c0.3,0.3,0.6,0.6,0.9,0.9
		c0.3,0.3,0.5,0.6,0.8,1c0.3,0.3,0.5,0.7,0.8,1c0.2,0.3,0.5,0.7,0.7,1.1c0.2,0.4,0.4,0.7,0.6,1.1c0.2,0.4,0.4,0.7,0.6,1.1
		c0.2,0.4,0.4,0.8,0.5,1.2c0.2,0.4,0.3,0.8,0.4,1.2c0.1,0.4,0.3,0.8,0.4,1.2c0.1,0.4,0.2,0.8,0.3,1.2c0.1,0.4,0.2,0.8,0.2,1.2
		c0.1,0.4,0.1,0.8,0.2,1.3c0,0.4,0.1,0.8,0.1,1.3c0,0.4,0,0.8,0,1.3c0,1.2-0.1,2.4-0.3,3.5c-0.2,1.2-0.5,2.3-0.8,3.4
		c-0.4,1.1-0.8,2.2-1.3,3.3c-0.5,1.1-1.1,2.1-1.8,3c-0.7,1-1.4,1.9-2.3,2.7c-0.8,0.8-1.7,1.6-2.7,2.3c-0.9,0.7-1.9,1.3-3,1.9
		c-1,0.5-2.1,1-3.2,1.4c-1.1,0.4-2.2,0.6-3.4,0.8c-1.2,0.2-2.3,0.3-3.5,0.3c-1.2,0-2.3-0.1-3.5-0.3c-1.2-0.2-2.3-0.5-3.4-0.8
		c-1.1-0.4-2.2-0.8-3.2-1.4c-1-0.5-2-1.2-3-1.9c-0.9-0.7-1.8-1.5-2.7-2.3c-0.8-0.8-1.6-1.7-2.3-2.7c-0.7-1-1.3-2-1.8-3
		c-0.5-1.1-1-2.1-1.3-3.3c-0.4-1.1-0.6-2.3-0.8-3.4c-0.2-1.2-0.3-2.3-0.3-3.5c0-1.2,0.1-2.4,0.3-3.5c0.2-1.2,0.5-2.3,0.8-3.4
		c0.4-1.1,0.8-2.2,1.3-3.3c0.5-1.1,1.1-2.1,1.8-3c0.7-1,1.4-1.9,2.3-2.7c0.8-0.8,1.7-1.6,2.7-2.3c0.9-0.7,1.9-1.3,3-1.9
		c1-0.5,2.1-1,3.2-1.4c1.1-0.4,2.2-0.6,3.4-0.8C49.3,334.4,50.5,334.3,51.6,334.3L51.6,334.3z"/>
</g>
</svg>
